<svg xmlns="http://www.w3.org/2000/svg" version="1.1" xmlns:xlink="http://www.w3.org/1999/xlink" xmlnsSvgjs="http://svgjs.dev/svgjs" width="2000" height="489" viewBox="0 0 2000 489"><g transform="matrix(1,0,0,1,-1.211070372737936,-0.8986525018637224)"><svg viewBox="0 0 396 97" data-background-color="#efefef" preserveAspectRatio="xMidYMid meet" height="489" width="2000" xmlns="http://www.w3.org/2000/svg" xmlns:xlink="http://www.w3.org/1999/xlink"><g id="tight-bounds" transform="matrix(1,0,0,1,0.23979193380210972,0.1782603122306341)"><svg viewBox="0 0 395.52 96.64347937553876" height="96.64347937553876" width="395.52"><g><svg viewBox="0 0 456.2240332767896 111.47622863726367" height="96.64347937553876" width="395.52"><g transform="matrix(1,0,0,1,100.10351327678963,0)"><svg viewBox="0 0 356.12052 111.47622863726367" height="111.47622863726367" width="356.12052"><g><path d="M0 111.476v-111.476h356.121v111.476z" fill="#000000" stroke="transparent" stroke-width="0" rx="0%" data-fill-palette-color="tertiary"></path><path d="M3.283 108.193v-104.91h349.554v104.91z" fill="#ffffff" stroke="transparent" stroke-width="0" rx="0%" data-fill-palette-color="quaternary"></path><path d="M9.85 101.626v-91.776h336.421v91.776z" fill="#000000" stroke="transparent" stroke-width="0" data-fill-palette-color="tertiary"></path></g><g transform="matrix(1,0,0,1,19.69974,19.69974)" id="textblocktransform"><svg viewBox="0 0 316.72104 72.07674863726368" height="72.07674863726368" width="316.72104" id="textblock"><g><svg viewBox="0 0 316.72104 44.108987845734326" height="44.108987845734326" width="316.72104"><g transform="matrix(1,0,0,1,0,0)"><svg width="316.72104" viewBox="1.1 -35.35 256.67999999999995 35.75" height="44.108987845734326" data-palette-color="#efefef"><path d="M23.9-33.7L23.9-29.4 15.05-29.4 15.05 0 9.9 0 9.9-29.4 1.1-29.4 1.1-33.7 23.9-33.7ZM49.4-17L49.4 0 44.5 0 44.5-16Q44.5-18.6 43.17-20.03 41.85-21.45 39.7-21.45L39.7-21.45Q37.2-21.45 35.27-19.55 33.35-17.65 33.35-13.75L33.35-13.75 33.35 0 28.45 0 28.45-35.35 33.35-35.35 33.35-21Q35.5-25.7 41.2-25.7L41.2-25.7Q44.9-25.7 47.15-23.4 49.4-21.1 49.4-17L49.4-17ZM74.9-5.75L74.9-1.35Q72.09 0.25 67.5 0.25L67.5 0.25Q61.59 0.25 58.09-3.3 54.59-6.85 54.59-12.6L54.59-12.6Q54.59-18.7 57.8-22.18 61-25.65 65.95-25.65L65.95-25.65Q70.8-25.65 73.65-22.63 76.5-19.6 76.5-13.9L76.5-13.9Q76.5-12.35 76.2-10.65L76.2-10.65 59.55-10.65Q60.05-7.35 62.34-5.6 64.65-3.85 68.15-3.85L68.15-3.85Q72.2-3.85 74.9-5.75L74.9-5.75ZM66.05-21.6L66.05-21.6Q63.55-21.6 61.75-19.78 59.95-17.95 59.5-14.5L59.5-14.5 71.75-14.5 71.75-15.4Q71.65-18.25 70.2-19.93 68.75-21.6 66.05-21.6ZM119.14-6.85L119.14-1.65Q116.04 0.4 110.54 0.4L110.54 0.4Q102.99 0.4 98.19-4.3 93.39-9 93.39-16.9L93.39-16.9Q93.39-24.55 98.22-29.35 103.04-34.15 110.44-34.15L110.44-34.15Q115.84-34.15 119.09-32.3L119.09-32.3 119.09-27.25Q116.89-28.45 115.12-28.93 113.34-29.4 110.59-29.4L110.59-29.4Q105.54-29.4 102.17-25.98 98.79-22.55 98.79-16.9L98.79-16.9Q98.79-11.15 102.14-7.75 105.49-4.35 110.99-4.35L110.99-4.35Q115.84-4.35 119.14-6.85L119.14-6.85ZM129.69-13.5L129.69 0 124.79 0 124.79-25.35 129.69-25.35 129.69-20.9Q131.54-25.6 136.34-25.6L136.34-25.6Q137.04-25.6 137.89-25.45L137.89-25.45 137.89-20.65Q136.84-21.1 135.54-21.1L135.54-21.1Q132.99-21.1 131.34-18.85 129.69-16.6 129.69-13.5L129.69-13.5ZM160.63-5.75L160.63-1.35Q157.84 0.25 153.23 0.25L153.23 0.25Q147.34 0.25 143.84-3.3 140.34-6.85 140.34-12.6L140.34-12.6Q140.34-18.7 143.53-22.18 146.73-25.65 151.69-25.65L151.69-25.65Q156.53-25.65 159.38-22.63 162.24-19.6 162.24-13.9L162.24-13.9Q162.24-12.35 161.94-10.65L161.94-10.65 145.28-10.65Q145.78-7.35 148.09-5.6 150.38-3.85 153.88-3.85L153.88-3.85Q157.94-3.85 160.63-5.75L160.63-5.75ZM151.78-21.6L151.78-21.6Q149.28-21.6 147.48-19.78 145.69-17.95 145.23-14.5L145.23-14.5 157.49-14.5 157.49-15.4Q157.38-18.25 155.94-19.93 154.48-21.6 151.78-21.6ZM171.63-12.45L171.63-12.45Q171.63-8.65 173.51-6.3 175.38-3.95 178.23-3.95L178.23-3.95Q181.13-3.95 183.13-6.15 185.13-8.35 185.13-12.85L185.13-12.85Q185.13-17.2 183.06-19.3 180.98-21.4 178.38-21.4L178.38-21.4Q175.43-21.4 173.53-19.07 171.63-16.75 171.63-12.45ZM190.08-35.35L190.08 0 185.13 0 185.13-3.85Q182.48 0.35 177.38 0.35L177.38 0.35Q172.38 0.35 169.48-3.43 166.58-7.2 166.58-12.55L166.58-12.55Q166.58-18.5 169.63-22.1 172.68-25.7 177.48-25.7L177.48-25.7Q182.43-25.7 185.13-21.5L185.13-21.5 185.13-35.35 190.08-35.35ZM202.13-35.35L202.13 0 197.18 0 197.18-35.35 202.13-35.35ZM217.43-3.65L217.43-3.65Q219.83-3.65 221.2-4.98 222.58-6.3 222.58-8.45L222.58-8.45 222.58-11.3 218.78-11.3Q215.98-11.3 214.55-10.2 213.13-9.1 213.13-7.4L213.13-7.4Q213.13-5.65 214.23-4.65 215.33-3.65 217.43-3.65ZM222.73 0L222.73-3Q220.78 0.2 215.88 0.2L215.88 0.2Q212.28 0.2 210.1-1.88 207.93-3.95 207.93-7.15L207.93-7.15Q207.93-10.8 210.68-12.83 213.43-14.85 218.38-14.85L218.38-14.85 222.58-14.85 222.58-16.3Q222.58-18.9 221.33-20.23 220.08-21.55 217.18-21.55L217.18-21.55Q213.13-21.55 209.83-19.3L209.83-19.3 209.83-24.05Q212.78-25.75 217.63-25.75L217.63-25.75Q227.58-25.75 227.58-16.1L227.58-16.1 227.58 0 222.73 0ZM239.23-3.85L239.23 0 234.28 0 234.28-35.35 239.23-35.35 239.23-21.5Q241.93-25.7 246.88-25.7L246.88-25.7Q251.68-25.7 254.73-22.1 257.78-18.5 257.78-12.55L257.78-12.55Q257.78-7.2 254.88-3.43 251.98 0.35 246.93 0.35 241.88 0.35 239.23-3.85L239.23-3.85ZM239.23-12.85L239.23-12.85Q239.23-8.35 241.23-6.15 243.23-3.95 246.13-3.95L246.13-3.95Q248.93-3.95 250.83-6.33 252.73-8.7 252.73-12.45L252.73-12.45Q252.73-16.75 250.83-19.07 248.93-21.4 245.98-21.4L245.98-21.4Q243.38-21.4 241.3-19.3 239.23-17.2 239.23-12.85Z" opacity="1" transform="matrix(1,0,0,1,0,0)" fill="#ffffff" class="wordmark-text-0" data-fill-palette-color="quaternary" id="text-0"></path></svg></g></svg></g><g transform="matrix(1,0,0,1,0,50.67556784573433)"><svg viewBox="0 0 185.94692258400002 21.401180791529356" height="21.401180791529356" width="185.94692258400002"><g transform="matrix(1,0,0,1,0,0)"><svg width="185.94692258400002" viewBox="5.7 -37.1 408.76 47.05" height="21.401180791529356" data-palette-color="#efefef"><path d="M27.75-18.05Q31.2-17.3 33.08-15.08 34.95-12.85 34.95-9.35L34.95-9.35Q34.95-4.85 31.63-2.43 28.3 0 21.8 0L21.8 0 5.7 0 5.7-35 20.8-35Q26.65-35 29.88-32.65 33.1-30.3 33.1-26L33.1-26Q33.1-23.1 31.68-21.08 30.25-19.05 27.75-18.05L27.75-18.05ZM20.55-31.95L9.4-31.95 9.4-19.25 20.55-19.25Q24.8-19.25 27.1-20.88 29.4-22.5 29.4-25.6L29.4-25.6Q29.4-28.7 27.1-30.33 24.8-31.95 20.55-31.95L20.55-31.95ZM21.75-3.05Q26.45-3.05 28.85-4.65 31.25-6.25 31.25-9.65L31.25-9.65Q31.25-16.2 21.75-16.2L21.75-16.2 9.4-16.2 9.4-3.05 21.75-3.05ZM62.8-26.3L66.35-26.3 66.35 0 62.95 0 62.95-4.8Q61.55-2.4 59.1-1.07 56.65 0.25 53.5 0.25L53.5 0.25Q48.35 0.25 45.37-2.63 42.4-5.5 42.4-11.05L42.4-11.05 42.4-26.3 45.95-26.3 45.95-11.4Q45.95-7.25 48-5.1 50.05-2.95 53.85-2.95L53.85-2.95Q58-2.95 60.4-5.48 62.8-8 62.8-12.5L62.8-12.5 62.8-26.3ZM76.3 0L76.3-26.3 79.84-26.3 79.84 0 76.3 0ZM78.09-32.05Q77-32.05 76.25-32.8 75.5-33.55 75.5-34.6L75.5-34.6Q75.5-35.6 76.25-36.35 77-37.1 78.09-37.1L78.09-37.1Q79.19-37.1 79.94-36.38 80.69-35.65 80.69-34.65L80.69-34.65Q80.69-33.55 79.94-32.8 79.19-32.05 78.09-32.05L78.09-32.05ZM89.74 0L89.74-37.1 93.29-37.1 93.29 0 89.74 0ZM123.64-37.1L127.19-37.1 127.19 0 123.79 0 123.79-5.2Q122.19-2.55 119.57-1.15 116.94 0.25 113.64 0.25L113.64 0.25Q109.94 0.25 106.94-1.45 103.94-3.15 102.24-6.2 100.54-9.25 100.54-13.15L100.54-13.15Q100.54-17.05 102.24-20.1 103.94-23.15 106.94-24.83 109.94-26.5 113.64-26.5L113.64-26.5Q116.84-26.5 119.42-25.18 121.99-23.85 123.64-21.3L123.64-21.3 123.64-37.1ZM113.94-2.9Q116.69-2.9 118.92-4.17 121.14-5.45 122.42-7.8 123.69-10.15 123.69-13.15L123.69-13.15Q123.69-16.15 122.42-18.5 121.14-20.85 118.92-22.13 116.69-23.4 113.94-23.4L113.94-23.4Q111.14-23.4 108.92-22.13 106.69-20.85 105.42-18.5 104.14-16.15 104.14-13.15L104.14-13.15Q104.14-10.15 105.42-7.8 106.69-5.45 108.92-4.17 111.14-2.9 113.94-2.9L113.94-2.9ZM137.09 0L137.09-26.3 140.64-26.3 140.64 0 137.09 0ZM138.89-32.05Q137.79-32.05 137.04-32.8 136.29-33.55 136.29-34.6L136.29-34.6Q136.29-35.6 137.04-36.35 137.79-37.1 138.89-37.1L138.89-37.1Q139.99-37.1 140.74-36.38 141.49-35.65 141.49-34.65L141.49-34.65Q141.49-33.55 140.74-32.8 139.99-32.05 138.89-32.05L138.89-32.05ZM163.94-26.5Q168.89-26.5 171.81-23.63 174.74-20.75 174.74-15.25L174.74-15.25 174.74 0 171.19 0 171.19-14.9Q171.19-19 169.14-21.15 167.09-23.3 163.28-23.3L163.28-23.3Q159.03-23.3 156.56-20.78 154.09-18.25 154.09-13.8L154.09-13.8 154.09 0 150.53 0 150.53-26.3 153.94-26.3 153.94-21.45Q155.39-23.85 157.96-25.18 160.53-26.5 163.94-26.5L163.94-26.5ZM205.43-26.3L208.83-26.3 208.83-3.2Q208.83 3.5 205.56 6.73 202.28 9.95 195.68 9.95L195.68 9.95Q192.03 9.95 188.76 8.88 185.48 7.8 183.43 5.9L183.43 5.9 185.23 3.2Q187.13 4.9 189.86 5.85 192.58 6.8 195.58 6.8L195.58 6.8Q200.58 6.8 202.93 4.48 205.28 2.15 205.28-2.75L205.28-2.75 205.28-6.1Q203.63-3.6 200.96-2.3 198.28-1 195.03-1L195.03-1Q191.33-1 188.31-2.63 185.28-4.25 183.56-7.18 181.83-10.1 181.83-13.8L181.83-13.8Q181.83-17.5 183.56-20.4 185.28-23.3 188.28-24.9 191.28-26.5 195.03-26.5L195.03-26.5Q198.38-26.5 201.08-25.15 203.78-23.8 205.43-21.25L205.43-21.25 205.43-26.3ZM195.38-4.15Q198.23-4.15 200.53-5.38 202.83-6.6 204.11-8.8 205.38-11 205.38-13.8L205.38-13.8Q205.38-16.6 204.11-18.78 202.83-20.95 200.56-22.18 198.28-23.4 195.38-23.4L195.38-23.4Q192.53-23.4 190.26-22.2 187.98-21 186.71-18.8 185.43-16.6 185.43-13.8L185.43-13.8Q185.43-11 186.71-8.8 187.98-6.6 190.26-5.38 192.53-4.15 195.38-4.15L195.38-4.15ZM247.83 0.3Q242.63 0.3 238.45-2 234.28-4.3 231.9-8.38 229.53-12.45 229.53-17.5L229.53-17.5Q229.53-22.55 231.9-26.63 234.28-30.7 238.48-33 242.68-35.3 247.88-35.3L247.88-35.3Q251.78-35.3 255.08-34 258.38-32.7 260.68-30.2L260.68-30.2 258.33-27.85Q254.23-32 247.98-32L247.98-32Q243.83-32 240.43-30.1 237.03-28.2 235.1-24.9 233.18-21.6 233.18-17.5L233.18-17.5Q233.18-13.4 235.1-10.1 237.03-6.8 240.43-4.9 243.83-3 247.98-3L247.98-3Q254.28-3 258.33-7.2L258.33-7.2 260.68-4.85Q258.38-2.35 255.05-1.03 251.73 0.3 247.83 0.3L247.83 0.3ZM276.63-26.5Q281.78-26.5 284.53-23.93 287.28-21.35 287.28-16.3L287.28-16.3 287.28 0 283.88 0 283.88-4.1Q282.68-2.05 280.35-0.9 278.03 0.25 274.83 0.25L274.83 0.25Q270.43 0.25 267.83-1.85 265.23-3.95 265.23-7.4L265.23-7.4Q265.23-10.75 267.65-12.8 270.08-14.85 275.38-14.85L275.38-14.85 283.73-14.85 283.73-16.45Q283.73-19.85 281.83-21.63 279.93-23.4 276.28-23.4L276.28-23.4Q273.78-23.4 271.48-22.58 269.18-21.75 267.53-20.3L267.53-20.3 265.93-22.95Q267.93-24.65 270.73-25.58 273.53-26.5 276.63-26.5L276.63-26.5ZM275.38-2.55Q278.38-2.55 280.53-3.93 282.68-5.3 283.73-7.9L283.73-7.9 283.73-12.2 275.48-12.2Q268.73-12.2 268.73-7.5L268.73-7.5Q268.73-5.2 270.48-3.88 272.23-2.55 275.38-2.55L275.38-2.55ZM300.32-21.15Q301.57-23.8 304.05-25.15 306.52-26.5 310.17-26.5L310.17-26.5 310.17-23.05 309.32-23.1Q305.17-23.1 302.82-20.55 300.47-18 300.47-13.4L300.47-13.4 300.47 0 296.92 0 296.92-26.3 300.32-26.3 300.32-21.15ZM339.27-13.15L339.22-12.05 317.22-12.05Q317.52-7.95 320.37-5.43 323.22-2.9 327.57-2.9L327.57-2.9Q330.02-2.9 332.07-3.78 334.12-4.65 335.62-6.35L335.62-6.35 337.62-4.05Q335.87-1.95 333.25-0.85 330.62 0.25 327.47 0.25L327.47 0.25Q323.42 0.25 320.3-1.48 317.17-3.2 315.42-6.25 313.67-9.3 313.67-13.15L313.67-13.15Q313.67-17 315.35-20.05 317.02-23.1 319.95-24.8 322.87-26.5 326.52-26.5L326.52-26.5Q330.17-26.5 333.07-24.8 335.97-23.1 337.62-20.08 339.27-17.05 339.27-13.15L339.27-13.15ZM326.52-23.45Q322.72-23.45 320.15-21.03 317.57-18.6 317.22-14.7L317.22-14.7 335.87-14.7Q335.52-18.6 332.95-21.03 330.37-23.45 326.52-23.45L326.52-23.45ZM369.47-13.15L369.42-12.05 347.42-12.05Q347.72-7.95 350.57-5.43 353.42-2.9 357.77-2.9L357.77-2.9Q360.22-2.9 362.27-3.78 364.32-4.65 365.82-6.35L365.82-6.35 367.82-4.05Q366.07-1.95 363.44-0.85 360.82 0.25 357.67 0.25L357.67 0.25Q353.62 0.25 350.49-1.48 347.37-3.2 345.62-6.25 343.87-9.3 343.87-13.15L343.87-13.15Q343.87-17 345.54-20.05 347.22-23.1 350.14-24.8 353.07-26.5 356.72-26.5L356.72-26.5Q360.37-26.5 363.27-24.8 366.17-23.1 367.82-20.08 369.47-17.05 369.47-13.15L369.47-13.15ZM356.72-23.45Q352.92-23.45 350.34-21.03 347.77-18.6 347.42-14.7L347.42-14.7 366.07-14.7Q365.72-18.6 363.14-21.03 360.57-23.45 356.72-23.45L356.72-23.45ZM380.12-21.15Q381.37-23.8 383.84-25.15 386.32-26.5 389.97-26.5L389.97-26.5 389.97-23.05 389.12-23.1Q384.97-23.1 382.62-20.55 380.27-18 380.27-13.4L380.27-13.4 380.27 0 376.72 0 376.72-26.3 380.12-26.3 380.12-21.15ZM403.61 0.25Q400.41 0.25 397.49-0.68 394.56-1.6 392.91-3L392.91-3 394.51-5.8Q396.16-4.5 398.66-3.68 401.16-2.85 403.86-2.85L403.86-2.85Q407.46-2.85 409.19-3.98 410.91-5.1 410.91-7.15L410.91-7.15Q410.91-8.6 409.96-9.43 409.01-10.25 407.56-10.68 406.11-11.1 403.71-11.5L403.71-11.5Q400.51-12.1 398.56-12.73 396.61-13.35 395.24-14.85 393.86-16.35 393.86-19L393.86-19Q393.86-22.3 396.61-24.4 399.36-26.5 404.26-26.5L404.26-26.5Q406.81-26.5 409.36-25.83 411.91-25.15 413.56-24.05L413.56-24.05 412.01-21.2Q408.76-23.45 404.26-23.45L404.26-23.45Q400.86-23.45 399.14-22.25 397.41-21.05 397.41-19.1L397.41-19.1Q397.41-17.6 398.39-16.7 399.36-15.8 400.81-15.38 402.26-14.95 404.81-14.5L404.81-14.5Q407.96-13.9 409.86-13.3 411.76-12.7 413.11-11.25 414.46-9.8 414.46-7.25L414.46-7.25Q414.46-3.8 411.59-1.78 408.71 0.25 403.61 0.25L403.61 0.25Z" opacity="1" transform="matrix(1,0,0,1,0,0)" fill="#ffffff" class="slogan-text-1" data-fill-palette-color="quaternary" id="text-1"></path></svg></g></svg></g></svg></g></svg></g><g transform="matrix(1,0,0,1,0,8.921383008783586)"><svg viewBox="0 0 93.53693327678963 93.6334626196965" height="93.6334626196965" width="93.53693327678963"><g><svg xmlns="http://www.w3.org/2000/svg" xmlns:xlink="http://www.w3.org/1999/xlink" version="1.1" x="0" y="0" viewBox="1.5000000000000036 1.4000000000000021 96.9 96.99999999999999" enable-background="new 0 0 100 100" xml:space="preserve" height="93.6334626196965" width="93.53693327678963" class="icon-icon-0" data-fill-palette-color="accent" id="icon-0"><path d="M42.7 53.1h-3.3c-0.3-1-0.5-2-0.5-3.1 0-1.1 0.2-2.1 0.5-3.1h3.3c-0.2 1-0.3 2-0.3 3.1S42.6 52.2 42.7 53.1zM40.3 55.4c1.2 2.1 3 3.8 5.3 4.8-0.9-1.3-1.8-2.8-2.4-4.8H40.3zM48.9 60.6v-5.2h-3.3C46.5 57.8 47.8 59.5 48.9 60.6zM45.6 39.9c-2.2 1-4.1 2.7-5.3 4.8h2.9C43.8 42.7 44.7 41.1 45.6 39.9zM54.4 60.1c2.2-1 4.1-2.7 5.3-4.8h-2.9C56.2 57.3 55.3 58.9 54.4 60.1zM57.5 50c0 1.1-0.1 2.2-0.3 3.1h3.3c0.3-1 0.5-2 0.5-3.1 0-1.1-0.2-2.1-0.5-3.1h-3.3C57.4 47.8 57.5 48.9 57.5 50zM51.1 55.4v5.2c1.1-1.1 2.4-2.8 3.3-5.2H51.1zM44.7 50c0 1.1 0.1 2.2 0.3 3.1h3.9v-6.3H45C44.8 47.8 44.7 48.9 44.7 50zM55.3 50c0-1.1-0.1-2.2-0.3-3.1h-3.9v6.3H55C55.2 52.2 55.3 51.1 55.3 50zM98.4 50c0 5.1-4.1 9.2-9.2 9.2-4 0-7.4-2.6-8.7-6.2h-12c-0.5 2.9-1.6 5.6-3.3 7.9l8.5 8.5c3.4-1.6 7.6-1 10.4 1.8 3.6 3.6 3.6 9.4 0 13-3.6 3.6-9.4 3.6-13 0-2.8-2.8-3.4-7.1-1.8-10.5L61 65.3c-2.3 1.7-5 2.8-7.9 3.3v12c3.5 1.3 6.1 4.7 6.1 8.6 0 5.1-4.1 9.2-9.2 9.2s-9.2-4.1-9.2-9.2c0-4 2.6-7.4 6.2-8.7v-12c-3-0.5-5.7-1.6-8-3.3l-8.5 8.5c1.7 3.4 1.1 7.7-1.8 10.5-3.6 3.6-9.4 3.6-13 0-3.6-3.6-3.6-9.4 0-13 2.8-2.8 7-3.4 10.4-1.8l8.5-8.5c-1.6-2.3-2.8-5-3.2-7.9h-12c-1.2 3.6-4.7 6.2-8.7 6.2-5.1 0-9.2-4.1-9.2-9.2 0-5.1 4.1-9.2 9.2-9.2 4 0 7.4 2.5 8.6 6.1h12.1c0.5-2.9 1.6-5.6 3.3-7.9l-8.5-8.5c-3.4 1.7-7.7 1.1-10.5-1.8-3.6-3.6-3.6-9.4 0-13 3.6-3.6 9.4-3.6 13 0 2.8 2.8 3.4 7 1.8 10.4l8.5 8.5c2.3-1.7 5-2.8 7.9-3.3v-12c-3.6-1.2-6.2-4.7-6.2-8.7 0-5.1 4.1-9.2 9.2-9.2s9.2 4.1 9.2 9.2c0 4-2.5 7.4-6.1 8.6v12c2.9 0.5 5.5 1.6 7.8 3.2l8.5-8.5c-1.6-3.4-1-7.6 1.8-10.4 3.6-3.6 9.4-3.6 13 0 3.6 3.6 3.6 9.4 0 13-2.8 2.8-7.1 3.4-10.5 1.8L65.3 39c1.7 2.3 2.8 5 3.3 7.9h12c1.3-3.5 4.7-6.1 8.6-6.1C94.3 40.8 98.4 44.9 98.4 50zM75.4 24.6c1.3 1.3 3.4 1.3 4.7 0 1.3-1.3 1.3-3.4 0-4.7s-3.4-1.3-4.7 0C74.1 21.2 74.1 23.3 75.4 24.6zM24.6 19.9c-1.3-1.3-3.4-1.3-4.7 0-1.3 1.3-1.3 3.4 0 4.7 1.3 1.3 3.4 1.3 4.7 0C25.9 23.3 25.9 21.2 24.6 19.9zM14.1 50c0-1.8-1.5-3.3-3.3-3.3-1.8 0-3.3 1.5-3.3 3.3s1.5 3.3 3.3 3.3C12.6 53.3 14.1 51.8 14.1 50zM24.6 75.4c-1.3-1.3-3.4-1.3-4.7 0-1.3 1.3-1.3 3.4 0 4.7 1.3 1.3 3.4 1.3 4.7 0C25.9 78.8 25.9 76.7 24.6 75.4zM50 14.1c1.8 0 3.3-1.5 3.3-3.3 0-1.8-1.5-3.3-3.3-3.3s-3.3 1.5-3.3 3.3C46.7 12.6 48.2 14.1 50 14.1zM50 85.9c-1.8 0-3.3 1.5-3.3 3.3 0 1.8 1.5 3.3 3.3 3.3s3.3-1.5 3.3-3.3C53.3 87.4 51.8 85.9 50 85.9zM63.5 50c0-7.5-6.1-13.5-13.5-13.5-7.5 0-13.5 6.1-13.5 13.5S42.5 63.5 50 63.5C57.5 63.5 63.5 57.5 63.5 50zM75.4 80.1c1.3 1.3 3.4 1.3 4.7 0 1.3-1.3 1.3-3.4 0-4.7-1.3-1.3-3.4-1.3-4.7 0C74.1 76.7 74.1 78.8 75.4 80.1zM92.6 50c0-1.8-1.5-3.3-3.3-3.3s-3.3 1.5-3.3 3.3c0 1.8 1.5 3.3 3.3 3.3S92.6 51.8 92.6 50zM54.4 39.9c0.9 1.3 1.8 2.8 2.4 4.8h2.9C58.5 42.5 56.6 40.8 54.4 39.9zM48.9 44.6v-5.2c-1.1 1.1-2.4 2.8-3.3 5.2H48.9zM51.1 39.4v5.2h3.3C53.5 42.2 52.2 40.5 51.1 39.4z" fill="#000000" data-fill-palette-color="accent"></path></svg></g></svg></g></svg></g><defs></defs></svg><rect width="395.52" height="96.64347937553876" fill="none" stroke="none" visibility="hidden"></rect></g></svg></g></svg>